<svg width="300" height="301" viewBox="0 0 300 301" fill="none" xmlns="http://www.w3.org/2000/svg">
<path d="M280.408 107.221V64.0837L237.449 42.9607L193.599 64.5293L236.825 85.8306L19 192.961V235.831L62.5829 257.221L106.166 235.831L62.5829 214.44L280.408 107.221Z" fill="#00B8D8"/>
<path d="M62.5829 85.8306L120.783 114.44L164.365 92.9607L62.5829 42.9607L19 64.4402V164.44L62.5829 143.05V85.8306Z" fill="#00B8D8"/>
<path d="M149.837 42.9607L164.365 50.0908L208.037 28.5222L149.659 0.0908203L91.6377 28.7005L135.131 50.0908L149.837 42.9607Z" fill="#00B8D8"/>
<path d="M280.408 235.831L280.319 135.831L236.825 157.31V214.262L178.982 185.652L135.221 207.132L236.825 257.221V257.31L280.408 235.831Z" fill="#00B8D8"/>
<path d="M149.659 257.221L135.131 250.091L91.6377 271.57L149.659 300.091L207.77 271.57L164.187 250.091L149.659 257.221Z" fill="#00B8D8"/>
</svg>
